<svg width="29" height="23" viewBox="0 0 29 23" fill="none" xmlns="http://www.w3.org/2000/svg">
<path d="M0.980718 8.11197C0.628361 8.32972 0.519246 8.79189 0.737002 9.14425C0.954758 9.4966 1.41693 9.60572 1.76928 9.38796L0.980718 8.11197ZM5.51928 7.07046C5.87164 6.85271 5.98075 6.39054 5.763 6.03818C5.54524 5.68583 5.08308 5.57671 4.73072 5.79447L5.51928 7.07046ZM5.875 6.43246C5.875 6.01825 5.53921 5.68246 5.125 5.68246C4.71079 5.68246 4.375 6.01825 4.375 6.43246H5.875ZM10.75 22.625C11.1642 22.625 11.5 22.2892 11.5 21.875C11.5 21.4608 11.1642 21.125 10.75 21.125V22.625ZM4.73062 5.79453C4.3783 6.01234 4.26925 6.47452 4.48706 6.82685C4.70487 7.17917 5.16706 7.28821 5.51938 7.0704L4.73062 5.79453ZM12.9288 1.60809L12.6038 0.93215C12.58 0.943587 12.5568 0.956272 12.5344 0.970152L12.9288 1.60809ZM16.0713 1.60809L16.4656 0.970152C16.4432 0.956272 16.42 0.943587 16.3962 0.93215L16.0713 1.60809ZM23.4806 7.0704C23.8329 7.28821 24.2951 7.17917 24.5129 6.82685C24.7307 6.47452 24.6217 6.01234 24.2694 5.79453L23.4806 7.0704ZM10 21.875C10 22.2892 10.3358 22.625 10.75 22.625C11.1642 22.625 11.5 22.2892 11.5 21.875H10ZM17.5 21.875C17.5 22.2892 17.8358 22.625 18.25 22.625C18.6642 22.625 19 22.2892 19 21.875H17.5ZM10.75 21.125C10.3358 21.125 10 21.4608 10 21.875C10 22.2892 10.3358 22.625 10.75 22.625V21.125ZM18.25 22.625C18.6642 22.625 19 22.2892 19 21.875C19 21.4608 18.6642 21.125 18.25 21.125V22.625ZM18.25 21.125C17.8358 21.125 17.5 21.4608 17.5 21.875C17.5 22.2892 17.8358 22.625 18.25 22.625V21.125ZM24.625 6.43246C24.625 6.01825 24.2892 5.68246 23.875 5.68246C23.4608 5.68246 23.125 6.01825 23.125 6.43246H24.625ZM24.2693 5.79447C23.9169 5.57671 23.4548 5.68583 23.237 6.03818C23.0192 6.39054 23.1284 6.85271 23.4807 7.07046L24.2693 5.79447ZM27.2307 9.38796C27.5831 9.60572 28.0452 9.4966 28.263 9.14425C28.4808 8.79189 28.3716 8.32972 28.0193 8.11197L27.2307 9.38796ZM1.76928 9.38796L5.51928 7.07046L4.73072 5.79447L0.980718 8.11197L1.76928 9.38796ZM4.375 6.43246V19.0625H5.875V6.43246H4.375ZM4.375 19.0625C4.375 20.1176 4.64113 21.0767 5.42407 21.743C6.17718 22.384 7.26336 22.625 8.59375 22.625V21.125C7.39289 21.125 6.7447 20.8973 6.39625 20.6007C6.07762 20.3295 5.875 19.8824 5.875 19.0625H4.375ZM8.59375 22.625H10.75V21.125H8.59375V22.625ZM5.51938 7.0704L13.3231 2.24603L12.5344 0.970152L4.73062 5.79453L5.51938 7.0704ZM13.2537 2.28403C14.0414 1.90532 14.9586 1.90532 15.7463 2.28403L16.3962 0.93215C15.1977 0.35595 13.8023 0.35595 12.6038 0.93215L13.2537 2.28403ZM15.6769 2.24603L23.4806 7.0704L24.2694 5.79453L16.4656 0.970152L15.6769 2.24603ZM11.5 21.875V20H10V21.875H11.5ZM11.5 20C11.5 18.3431 12.8431 17 14.5 17V15.5C12.0147 15.5 10 17.5147 10 20H11.5ZM14.5 17C16.1569 17 17.5 18.3431 17.5 20H19C19 17.5147 16.9853 15.5 14.5 15.5V17ZM17.5 20V21.875H19V20H17.5ZM10.75 22.625H18.25V21.125H10.75V22.625ZM18.25 22.625H20.4062V21.125H18.25V22.625ZM20.4062 22.625C21.7366 22.625 22.8228 22.384 23.5759 21.743C24.3589 21.0767 24.625 20.1176 24.625 19.0625H23.125C23.125 19.8824 22.9224 20.3295 22.6038 20.6007C22.2553 20.8973 21.6071 21.125 20.4062 21.125V22.625ZM24.625 19.0625V6.43246H23.125V19.0625H24.625ZM23.4807 7.07046L27.2307 9.38796L28.0193 8.11197L24.2693 5.79447L23.4807 7.07046Z" fill="#282C35"/>
</svg>
