<svg width="38" height="38" viewBox="0 0 38 38" fill="none" xmlns="http://www.w3.org/2000/svg">
<path d="M14.697 21.3447C14.4041 21.0518 13.9292 21.0518 13.6363 21.3447C13.3434 21.6376 13.3434 22.1124 13.6363 22.4053L14.697 21.3447ZM17.25 24.9583L16.7197 25.4887C16.8603 25.6293 17.0511 25.7083 17.25 25.7083C17.4489 25.7083 17.6397 25.6293 17.7803 25.4887L17.25 24.9583ZM23.947 19.322C24.2399 19.0291 24.2399 18.5542 23.947 18.2613C23.6541 17.9684 23.1792 17.9684 22.8863 18.2613L23.947 19.322ZM7.26942 14.4719C7.17576 14.8754 7.42693 15.2784 7.83041 15.3721C8.2339 15.4657 8.63692 15.2146 8.73058 14.8111L7.26942 14.4719ZM9.54167 8V7.25C9.19279 7.25 8.88998 7.49057 8.81109 7.83041L9.54167 8ZM18.7917 8.75C19.2059 8.75 19.5417 8.41421 19.5417 8C19.5417 7.58579 19.2059 7.25 18.7917 7.25V8.75ZM8.75 14.6415C8.75 14.2273 8.41421 13.8915 8 13.8915C7.58579 13.8915 7.25 14.2273 7.25 14.6415H8.75ZM8 29.5833H7.25C7.25 29.9975 7.58579 30.3333 8 30.3333V29.5833ZM29.5833 29.5833V30.3333C29.9975 30.3333 30.3333 29.9975 30.3333 29.5833H29.5833ZM30.3333 14.6415C30.3333 14.2273 29.9975 13.8915 29.5833 13.8915C29.1691 13.8915 28.8333 14.2273 28.8333 14.6415H30.3333ZM8 13.8915C7.58579 13.8915 7.25 14.2273 7.25 14.6415C7.25 15.0557 7.58579 15.3915 8 15.3915V13.8915ZM18.7917 15.3915C19.2059 15.3915 19.5417 15.0557 19.5417 14.6415C19.5417 14.2273 19.2059 13.8915 18.7917 13.8915V15.3915ZM18.0417 14.6415C18.0417 15.0557 18.3775 15.3915 18.7917 15.3915C19.2059 15.3915 19.5417 15.0557 19.5417 14.6415H18.0417ZM19.5417 8C19.5417 7.58579 19.2059 7.25 18.7917 7.25C18.3775 7.25 18.0417 7.58579 18.0417 8H19.5417ZM18.7917 13.8915C18.3775 13.8915 18.0417 14.2273 18.0417 14.6415C18.0417 15.0557 18.3775 15.3915 18.7917 15.3915V13.8915ZM29.5833 15.3915C29.9975 15.3915 30.3333 15.0557 30.3333 14.6415C30.3333 14.2273 29.9975 13.8915 29.5833 13.8915V15.3915ZM19.5417 14.6415C19.5417 14.2273 19.2059 13.8915 18.7917 13.8915C18.3775 13.8915 18.0417 14.2273 18.0417 14.6415H19.5417ZM18.0417 17.25C18.0417 17.6642 18.3775 18 18.7917 18C19.2059 18 19.5417 17.6642 19.5417 17.25H18.0417ZM18.7917 7.25C18.3775 7.25 18.0417 7.58579 18.0417 8C18.0417 8.41421 18.3775 8.75 18.7917 8.75V7.25ZM28.0417 8L28.7722 7.83041C28.6934 7.49057 28.3905 7.25 28.0417 7.25V8ZM28.8528 14.8111C28.9464 15.2146 29.3494 15.4657 29.7529 15.3721C30.1564 15.2784 30.4076 14.8754 30.3139 14.4719L28.8528 14.8111ZM13.6363 22.4053L16.7197 25.4887L17.7803 24.428L14.697 21.3447L13.6363 22.4053ZM17.7803 25.4887L23.947 19.322L22.8863 18.2613L16.7197 24.428L17.7803 25.4887ZM8.73058 14.8111L10.2722 8.16959L8.81109 7.83041L7.26942 14.4719L8.73058 14.8111ZM9.54167 8.75H18.7917V7.25H9.54167V8.75ZM7.25 14.6415V29.5833H8.75V14.6415H7.25ZM8 30.3333H29.5833V28.8333H8V30.3333ZM30.3333 29.5833V14.6415H28.8333V29.5833H30.3333ZM8 15.3915H18.7917V13.8915H8V15.3915ZM19.5417 14.6415V8H18.0417V14.6415H19.5417ZM18.7917 15.3915H29.5833V13.8915H18.7917V15.3915ZM18.0417 14.6415V17.25H19.5417V14.6415H18.0417ZM18.7917 8.75H28.0417V7.25H18.7917V8.75ZM27.3111 8.16959L28.8528 14.8111L30.3139 14.4719L28.7722 7.83041L27.3111 8.16959Z" fill="#282C35"/>
</svg>
