<svg width="42" height="42" viewBox="0 0 42 42" fill="none" xmlns="http://www.w3.org/2000/svg">
<path fill-rule="evenodd" clip-rule="evenodd" d="M21 24.2578C19.067 24.2578 17.5 22.7153 17.5 20.8125C17.5 18.9097 19.067 17.3672 21 17.3672C22.933 17.3672 24.5 18.9097 24.5 20.8125C24.5 21.7263 24.1313 22.6026 23.4749 23.2487C22.8185 23.8948 21.9283 24.2578 21 24.2578Z" stroke="#282C35" stroke-width="1.5" stroke-linecap="round" stroke-linejoin="round"/>
<path fill-rule="evenodd" clip-rule="evenodd" d="M30.3047 27.8116V25.4998C30.3047 24.9274 30.5358 24.3783 30.947 23.9736L32.6077 22.3388C33.464 21.4958 33.464 20.1291 32.6077 19.2862L30.947 17.6514C30.5358 17.2466 30.3047 16.6976 30.3047 16.1251V13.8116C30.3047 12.6195 29.323 11.6531 28.112 11.6531H25.7617C25.1802 11.6531 24.6224 11.4257 24.2112 11.0209L22.5505 9.3861C21.6942 8.54317 20.3058 8.54317 19.4495 9.3861L17.7887 11.0209C17.3775 11.4257 16.8198 11.6531 16.2382 11.6531H13.888C13.3061 11.6531 12.7481 11.8808 12.3369 12.2859C11.9256 12.6911 11.6948 13.2406 11.6952 13.8133V16.1251C11.6952 16.6976 11.4642 17.2466 11.053 17.6514L9.39223 19.2862C8.53592 20.1291 8.53592 21.4958 9.39223 22.3388L11.053 23.9736C11.4642 24.3783 11.6952 24.9274 11.6952 25.4998V27.8116C11.6952 29.0037 12.677 29.9701 13.888 29.9701H16.2382C16.8198 29.9701 17.3775 30.1975 17.7887 30.6023L19.4495 32.2371C20.3058 33.0801 21.6942 33.0801 22.5505 32.2371L24.2112 30.6023C24.6224 30.1975 25.1802 29.9701 25.7617 29.9701H28.1102C28.6921 29.9706 29.2503 29.7434 29.6619 29.3385C30.0735 28.9337 30.3047 28.3844 30.3047 27.8116Z" stroke="#282C35" stroke-width="1.5" stroke-linecap="round" stroke-linejoin="round"/>
</svg>
