<svg width="24" height="24" viewBox="0 0 24 24" fill="none" xmlns="http://www.w3.org/2000/svg">
<path fill-rule="evenodd" clip-rule="evenodd" d="M0.916774 21.8344V8.41724C0.912386 7.73228 1.46365 7.17322 2.14861 7.16799H7.07436C7.75931 7.17322 8.31058 7.73228 8.30619 8.41724V2.16624C8.3018 1.48189 8.85211 0.923088 9.53644 0.916992H14.4638C15.1487 0.92222 15.7 1.48128 15.6956 2.16624V5.91716C15.6912 5.2322 16.2425 4.67314 16.9274 4.66791H21.8532C22.5375 4.67401 23.0878 5.23281 23.0834 5.91716V21.8344C23.0878 22.5194 22.5366 23.0784 21.8516 23.0837H2.14861C1.46365 23.0784 0.912386 22.5194 0.916774 21.8344V21.8344Z" stroke="#282C35" stroke-width="1.5" stroke-linecap="round" stroke-linejoin="round"/>
<path d="M7.55615 23.0835C7.55615 23.4977 7.89194 23.8335 8.30615 23.8335C8.72037 23.8335 9.05615 23.4977 9.05615 23.0835H7.55615ZM9.05615 8.41708C9.05615 8.00286 8.72037 7.66708 8.30615 7.66708C7.89194 7.66708 7.55615 8.00286 7.55615 8.41708H9.05615ZM14.944 23.0835C14.944 23.4977 15.2798 23.8335 15.694 23.8335C16.1082 23.8335 16.444 23.4977 16.444 23.0835H14.944ZM16.444 5.91699C16.444 5.50278 16.1082 5.16699 15.694 5.16699C15.2798 5.16699 14.944 5.50278 14.944 5.91699H16.444ZM9.05615 23.0835V8.41708H7.55615V23.0835H9.05615ZM16.444 23.0835V5.91699H14.944V23.0835H16.444Z" fill="#282C35"/>
</svg>
